<svg width="155" height="140" viewBox="0 0 155 140" fill="none" xmlns="http://www.w3.org/2000/svg">
<ellipse cx="84.5" cy="129.159" rx="46.5" ry="6.89081" fill="#FFE9C8"/>
<path fill-rule="evenodd" clip-rule="evenodd" d="M122.268 65.0406C121.499 65.5742 120.717 66.0654 119.927 66.5143C121.664 66.7085 123.418 67.0974 125.155 67.6947C136.392 71.5587 142.666 82.6819 139.168 92.539C135.67 102.396 123.725 107.254 112.488 103.39C111.665 103.107 110.868 102.785 110.1 102.427C110.168 102.861 110.225 103.299 110.27 103.742C111.449 115.401 103.848 125.692 93.2939 126.726C83.7059 127.665 74.9782 120.643 72.5764 110.608C69.726 113.009 66.1463 114.79 62.0866 115.62C50.4325 118.003 39.2364 111.647 37.0795 101.424C35.3921 93.4262 39.7367 85.4311 47.288 81.1884C40.5185 78.0969 36.1876 72.6092 36.7263 66.769C37.4819 58.5767 47.5355 52.7654 59.2552 53.6944C58.6109 50.267 58.8173 46.635 60.0247 43.0965C63.8151 31.9893 76.0346 26.0098 87.3179 29.741C94.1024 31.9845 99.0036 37.2282 101.009 43.4676C102.118 42.4051 103.343 41.4002 104.677 40.4747C114.406 33.7238 126.23 33.7505 131.088 40.5342C135.946 47.3179 131.997 58.2898 122.268 65.0406Z" fill="#FF6609"/>
<path d="M106.408 80.9709C104.477 83.5852 102.449 87.8631 109.788 84.0605C108.742 86.5164 108.243 90.2397 114.617 85.4865" stroke="#5A2424" stroke-width="1.35266" stroke-linecap="round"/>
<path d="M62.9515 70.0388C61.0201 72.6531 58.9921 76.931 66.3315 73.1284C65.2853 75.5842 64.7864 79.3076 71.16 74.5544" stroke="#5A2424" stroke-width="1.35266" stroke-linecap="round"/>
<path d="M77 63.2044C72.944 68.9082 74.2732 75.0173 76.4233 76.4895C78.5001 77.9116 83.0384 78.3908 87.2875 70.7857C92.5989 61.2792 89.5001 58.7747 87.2875 57.7903C85.5963 57.0379 82.07 56.0746 77 63.2044Z" fill="white" stroke="#5A2424" stroke-width="1.35266" stroke-linecap="round"/>
<path d="M78.7705 61.958L88.4276 67.1865" stroke="#5A2424" stroke-width="1.35266" stroke-linecap="round"/>
<path d="M83.7243 56.9253L83 53.3604" stroke="#5A2424" stroke-width="1.35266" stroke-linecap="square"/>
<path d="M81.4255 76.6935C76.5969 74.6021 80.7012 68.0585 83.3569 65.0481L88.6683 67.6624C86.93 72.986 83.1155 75.9013 81.4255 76.6935Z" fill="#5A2424" stroke="#5A2424" stroke-width="1.35266" stroke-linecap="round"/>
<path d="M94.624 71.0799C90.5681 76.7837 91.8972 82.8927 94.0473 84.365C96.1241 85.7871 100.662 86.2663 104.912 78.6612C110.223 69.1547 107.124 66.6502 104.912 65.6658C103.22 64.9134 99.694 63.95 94.624 71.0799Z" fill="white" stroke="#5A2424" stroke-width="1.35266" stroke-linecap="round"/>
<path d="M96.3945 69.8335L106.052 75.062" stroke="#5A2424" stroke-width="1.35266" stroke-linecap="round"/>
<path d="M101.348 64.8008L100.624 61.2358" stroke="#5A2424" stroke-width="1.35266" stroke-linecap="square"/>
<path d="M99.0495 84.5682C94.221 82.4768 98.3252 75.9332 100.981 72.9229L106.292 75.5371C104.554 80.8607 100.739 83.776 99.0495 84.5682Z" fill="#5A2424" stroke="#5A2424" stroke-width="1.35266" stroke-linecap="round"/>
<path d="M88.7854 80.5885C88.5988 81.2891 87.5958 81.9 86.2841 81.5615C84.9723 81.223 84.4027 80.2063 84.5893 79.5057C84.7758 78.8051 85.7789 78.1941 87.0906 78.5326C88.4024 78.8711 88.972 79.8879 88.7854 80.5885Z" fill="#FFA4A4" stroke="#5A2424" stroke-width="1.35266"/>
<path d="M81.2374 85.2202C82.0218 86.2942 84.6091 88.1423 88.683 86.9431" stroke="#5A2424"/>
<rect width="9.06494" height="8.99396" transform="matrix(0.869396 0.494116 -0.505907 0.862588 111.55 19.8906)" fill="#FF6609"/>
<ellipse cx="137" cy="54.3448" rx="3" ry="2.9532" fill="#5146F1"/>
<path d="M137.527 22.8442L142.527 39.5791" stroke="#FEDA00"/>
<path d="M147.408 26.5491L132.119 35.0434" stroke="#FEDA00"/>
<path d="M148.035 33.6892L131.492 27.9037" stroke="#FEDA00"/>
<path d="M17.5268 72.064L22.5268 88.7988" stroke="#FEDA00"/>
<path d="M27.4082 75.7693L12.1186 84.2636" stroke="#FEDA00"/>
<path d="M28.0352 82.9089L11.4916 77.1234" stroke="#FEDA00"/>
<ellipse cx="3" cy="94.7052" rx="3" ry="2.9532" fill="#5146F1"/>
<rect width="9.06494" height="8.99396" transform="matrix(0.869396 0.494116 -0.505907 0.862588 21.5503 98.6431)" fill="#FF6609"/>
<ellipse cx="84.5" cy="129.159" rx="46.5" ry="6.89081" fill="#FFE9C8"/>
<path fill-rule="evenodd" clip-rule="evenodd" d="M122.268 65.0406C121.499 65.5742 120.717 66.0654 119.927 66.5143C121.664 66.7085 123.418 67.0974 125.155 67.6947C136.392 71.5587 142.666 82.6819 139.168 92.539C135.67 102.396 123.725 107.254 112.488 103.39C111.665 103.107 110.868 102.785 110.1 102.427C110.168 102.861 110.225 103.299 110.27 103.742C111.449 115.401 103.848 125.692 93.2939 126.726C83.7059 127.665 74.9782 120.643 72.5764 110.608C69.726 113.009 66.1463 114.79 62.0866 115.62C50.4325 118.003 39.2364 111.647 37.0795 101.424C35.3921 93.4262 39.7367 85.4311 47.288 81.1884C40.5185 78.0969 36.1876 72.6092 36.7263 66.769C37.4819 58.5767 47.5355 52.7654 59.2552 53.6944C58.6109 50.267 58.8173 46.635 60.0247 43.0965C63.8151 31.9893 76.0346 26.0098 87.3179 29.741C94.1024 31.9845 99.0036 37.2282 101.009 43.4676C102.118 42.4051 103.343 41.4002 104.677 40.4747C114.406 33.7238 126.23 33.7505 131.088 40.5342C135.946 47.3179 131.997 58.2898 122.268 65.0406Z" fill="#FF6609"/>
<path d="M106.408 80.9709C104.477 83.5852 102.449 87.8631 109.788 84.0605C108.742 86.5164 108.243 90.2397 114.617 85.4865" stroke="#5A2424" stroke-width="1.35266" stroke-linecap="round"/>
<path d="M62.9515 70.0388C61.0201 72.6531 58.9921 76.931 66.3315 73.1284C65.2853 75.5842 64.7864 79.3076 71.16 74.5544" stroke="#5A2424" stroke-width="1.35266" stroke-linecap="round"/>
<path d="M77 63.2044C72.944 68.9082 74.2732 75.0173 76.4233 76.4895C78.5001 77.9116 83.0384 78.3908 87.2875 70.7857C92.5989 61.2792 89.5001 58.7747 87.2875 57.7903C85.5963 57.0379 82.07 56.0746 77 63.2044Z" fill="white" stroke="#5A2424" stroke-width="1.35266" stroke-linecap="round"/>
<path d="M78.7705 61.958L88.4276 67.1865" stroke="#5A2424" stroke-width="1.35266" stroke-linecap="round"/>
<path d="M83.7243 56.9253L83 53.3604" stroke="#5A2424" stroke-width="1.35266" stroke-linecap="square"/>
<path d="M81.4255 76.6935C76.5969 74.6021 80.7012 68.0585 83.3569 65.0481L88.6683 67.6624C86.93 72.986 83.1155 75.9013 81.4255 76.6935Z" fill="#5A2424" stroke="#5A2424" stroke-width="1.35266" stroke-linecap="round"/>
<path d="M94.624 71.0799C90.5681 76.7838 91.8972 82.8928 94.0473 84.365C96.1241 85.7871 100.662 86.2663 104.912 78.6612C110.223 69.1548 107.124 66.6502 104.912 65.6658C103.22 64.9134 99.694 63.9501 94.624 71.0799Z" fill="white" stroke="#5A2424" stroke-width="1.35266" stroke-linecap="round"/>
<path d="M96.3945 69.8335L106.052 75.062" stroke="#5A2424" stroke-width="1.35266" stroke-linecap="round"/>
<path d="M101.348 64.8008L100.624 61.2358" stroke="#5A2424" stroke-width="1.35266" stroke-linecap="square"/>
<path d="M99.0495 84.5682C94.221 82.4768 98.3252 75.9332 100.981 72.9229L106.292 75.5371C104.554 80.8607 100.739 83.776 99.0495 84.5682Z" fill="#5A2424" stroke="#5A2424" stroke-width="1.35266" stroke-linecap="round"/>
<path d="M88.7854 80.5885C88.5988 81.2891 87.5958 81.9 86.2841 81.5615C84.9723 81.223 84.4027 80.2063 84.5893 79.5057C84.7758 78.8051 85.7789 78.1941 87.0906 78.5326C88.4024 78.8711 88.972 79.8879 88.7854 80.5885Z" fill="#FFA4A4" stroke="#5A2424" stroke-width="1.35266"/>
<path d="M81.2374 85.2202C82.0218 86.2942 84.6091 88.1423 88.683 86.9431" stroke="#5A2424"/>
<rect width="9.06494" height="8.99396" transform="matrix(0.869396 0.494116 -0.505907 0.862588 111.55 19.8906)" fill="#FF6609"/>
<ellipse cx="137" cy="54.3448" rx="3" ry="2.9532" fill="#5146F1"/>
<path d="M137.527 22.8442L142.527 39.5791" stroke="#FEDA00"/>
<path d="M147.408 26.5491L132.119 35.0434" stroke="#FEDA00"/>
<path d="M148.035 33.6892L131.492 27.9037" stroke="#FEDA00"/>
<path d="M17.5268 72.064L22.5268 88.7988" stroke="#FEDA00"/>
<path d="M27.4082 75.7693L12.1186 84.2636" stroke="#FEDA00"/>
<path d="M28.0352 82.9089L11.4916 77.1234" stroke="#FEDA00"/>
<rect width="9.06494" height="8.99396" transform="matrix(0.869396 0.494116 -0.505907 0.862588 21.5503 98.6431)" fill="#FF6609"/>
</svg>
