<svg width="155" height="140" viewBox="0 0 155 140" fill="none" xmlns="http://www.w3.org/2000/svg">
<path d="M87.5 135C113.181 135 134 131.866 134 128C134 124.134 113.181 121 87.5 121C61.8188 121 41 124.134 41 128C41 131.866 61.8188 135 87.5 135Z" fill="#66CDEC" fill-opacity="0.3"/>
<path d="M122.431 19.5501L114.55 15L110 22.881L117.881 27.4311L122.431 19.5501Z" fill="#FF6609"/>
<path d="M147 52C148.657 52 150 50.6569 150 49C150 47.3431 148.657 46 147 46C145.343 46 144 47.3431 144 49C144 50.6569 145.343 52 147 52Z" fill="#5146F1"/>
<path d="M140.527 18L145.527 35" stroke="#FEDA00"/>
<path d="M150.408 21.7639L135.118 30.3928" stroke="#FEDA00"/>
<path d="M151.035 29.0168L134.492 23.1396" stroke="#FEDA00"/>
<path d="M20.5267 68L25.5267 85" stroke="#FEDA00"/>
<path d="M30.4081 71.7639L15.1185 80.3928" stroke="#FEDA00"/>
<path d="M31.035 79.0168L14.4915 73.1396" stroke="#FEDA00"/>
<path d="M5 94C6.65685 94 8 92.6569 8 91C8 89.3431 6.65685 88 5 88C3.34315 88 2 89.3431 2 91C2 92.6569 3.34315 94 5 94Z" fill="#5146F1"/>
<path d="M32.4313 99.5501L24.5503 95L20.0002 102.881L27.8812 107.431L32.4313 99.5501Z" fill="#FF6609"/>
<path fill-rule="evenodd" clip-rule="evenodd" d="M130.889 82.0263C137.493 79.718 142.51 75.0893 144.174 68.8796C147.247 57.4127 137.721 44.8972 122.898 40.9254C114.813 38.7589 106.821 39.582 100.728 42.6388C96.9799 36.9451 90.4707 32.2367 82.3853 30.0702C67.5623 26.0984 53.0551 32.1743 49.9825 43.6412C48.3981 49.5542 50.1637 55.7461 54.2782 60.9016C50.4374 62.0049 47.7854 63.9956 47.0508 66.7371C46.3715 69.2723 47.4332 72.0712 49.7911 74.7524C44.0862 77.2323 39.8217 81.5625 38.3132 87.1921C35.2407 98.659 44.7663 111.174 59.5894 115.146C67.6747 117.313 75.6661 116.49 81.759 113.433C85.5074 119.127 92.0165 123.835 100.102 126.001C114.925 129.973 129.432 123.897 132.505 112.43C134.092 106.507 132.317 100.304 128.188 95.1433C131.392 94.0734 133.54 92.3628 134.152 90.076C134.82 87.5843 133.568 84.7741 130.889 82.0263Z" fill="#66CDEC"/>
<path d="M91.3767 62.5587C86.4897 63.0544 83.2751 61.3075 81.3475 59.2749C75.6548 69.4566 77.2562 74.544 82.6948 75.5978C88.1335 76.6517 90.6792 67.0058 91.3767 62.5587Z" fill="white"/>
<path d="M79.8007 55.4355L79.6114 54.7876L78.3156 55.1663L78.5049 55.8142L79.8007 55.4355ZM81.3475 59.2749L81.8373 58.8104L81.3475 59.2749ZM91.3767 62.5587L92.0435 62.6633L92.1791 61.7988L91.3086 61.8871L91.3767 62.5587ZM78.5049 55.8142C78.8317 56.9324 79.5872 58.3996 80.8578 59.7394L81.8373 58.8104C80.7127 57.6245 80.0666 56.3454 79.8007 55.4355L78.5049 55.8142ZM80.8578 59.7394C82.9239 61.9181 86.3423 63.7478 91.4448 63.2302L91.3086 61.8871C86.6371 62.361 83.6263 60.6969 81.8373 58.8104L80.8578 59.7394ZM90.7098 62.4541C90.3661 64.6459 89.569 68.0933 88.2087 70.8417C87.5278 72.2176 86.7301 73.3675 85.8216 74.1069C84.9332 74.83 83.9524 75.154 82.8232 74.9352L82.5664 76.2605C84.1566 76.5686 85.5335 76.082 86.6738 75.154C87.794 74.2422 88.6962 72.9003 89.4187 71.4405C90.8653 68.5177 91.6898 64.9186 92.0435 62.6633L90.7098 62.4541ZM82.8232 74.9352C81.5545 74.6893 80.5637 74.2187 79.8541 73.5451C79.1513 72.8778 78.6814 71.971 78.5156 70.7672C78.178 68.3156 79.1093 64.6612 81.9367 59.6043L80.7584 58.9455C77.893 64.0702 76.7787 68.0504 77.1782 70.9514C77.381 72.4239 77.9754 73.6229 78.9246 74.5241C79.867 75.4189 81.1159 75.9794 82.5664 76.2605L82.8232 74.9352Z" fill="#24265A"/>
<path d="M77.4777 68.9858L80.8664 59.8936L86.8485 62.4489C85.2072 71.384 79.5189 70.7346 77.4777 68.9858Z" fill="#24265A"/>
<path d="M110.926 67.797C106.039 68.2927 102.824 66.5458 100.896 64.5132C95.2037 74.6948 96.8051 79.7823 102.244 80.8361C107.682 81.89 110.228 72.2441 110.926 67.797Z" fill="white"/>
<path d="M99.3497 60.6738L99.1604 60.0259L97.8645 60.4046L98.0539 61.0525L99.3497 60.6738ZM100.896 64.5132L101.386 64.0487L100.896 64.5132ZM110.926 67.797L111.592 67.9015L111.728 67.0371L110.858 67.1254L110.926 67.797ZM98.0539 61.0525C98.3806 62.1707 99.1361 63.6378 100.407 64.9777L101.386 64.0487C100.262 62.8628 99.6156 61.5837 99.3497 60.6738L98.0539 61.0525ZM100.407 64.9777C102.473 67.1564 105.891 68.9861 110.994 68.4685L110.858 67.1254C106.186 67.5993 103.175 65.9352 101.386 64.0487L100.407 64.9777ZM110.259 67.6924C109.915 69.8842 109.118 73.3316 107.758 76.08C107.077 77.4558 106.279 78.6058 105.371 79.3452C104.482 80.0683 103.501 80.3922 102.372 80.1735L102.115 81.4988C103.706 81.8069 105.082 81.3203 106.223 80.3922C107.343 79.4805 108.245 78.1386 108.968 76.6788C110.414 73.756 111.239 70.1569 111.592 67.9015L110.259 67.6924ZM102.372 80.1735C101.103 79.9276 100.113 79.457 99.4031 78.7834C98.7003 78.1161 98.2303 77.2093 98.0646 76.0055C97.7269 73.5539 98.6582 69.8995 101.486 64.8426L100.307 64.1838C97.442 69.3085 96.3276 73.2886 96.7272 76.1897C96.93 77.6622 97.5243 78.8612 98.4735 79.7624C99.416 80.6572 100.665 81.2177 102.115 81.4988L102.372 80.1735Z" fill="#24265A"/>
<path d="M97.4714 74.3429L100.416 65.1316L106.398 67.6869C104.757 76.622 99.5125 76.0917 97.4714 74.3429Z" fill="#24265A"/>
<path d="M91.612 82.2303C90.1293 81.833 89.3688 80.5358 89.6543 79.47C89.9399 78.4042 91.2472 77.6611 92.7298 78.0583C94.2125 78.4556 94.973 79.7528 94.6874 80.8186C94.4019 81.8844 93.0946 82.6275 91.612 82.2303Z" fill="#BCEEFD" stroke="#24265A" stroke-width="1.35266"/>
<path d="M68.3102 74.464C68.7595 74.5844 69.2214 74.3178 69.3417 73.8684C69.4621 73.4191 69.1955 72.9573 68.7462 72.8369C68.2969 72.7165 67.835 72.9831 67.7146 73.4325C67.5942 73.8818 67.8609 74.3436 68.3102 74.464Z" fill="#24265A"/>
<path d="M73.7871 76.8034C74.2364 76.9238 74.6983 76.6571 74.8187 76.2078C74.9391 75.7585 74.6724 75.2966 74.2231 75.1762C73.7738 75.0559 73.3119 75.3225 73.1916 75.7718C73.0712 76.2211 73.3378 76.683 73.7871 76.8034Z" fill="#24265A"/>
<path d="M69.6608 79.1857C70.1101 79.3061 70.5719 79.0394 70.6923 78.5901C70.8127 78.1408 70.5461 77.679 70.0968 77.5586C69.6474 77.4382 69.1856 77.7048 69.0652 78.1541C68.9448 78.6035 69.2115 79.0653 69.6608 79.1857Z" fill="#24265A"/>
<path d="M115.543 88.9014C115.078 88.9014 114.701 89.2785 114.701 89.7437C114.701 90.2088 115.078 90.5859 115.543 90.5859C116.008 90.5859 116.385 90.2088 116.385 89.7437C116.385 89.2785 116.008 88.9014 115.543 88.9014Z" fill="#24265A"/>
<path d="M109.647 88.0591C109.182 88.0591 108.805 88.4362 108.805 88.9014C108.805 89.3666 109.182 89.7437 109.647 89.7437C110.112 89.7437 110.489 89.3666 110.489 88.9014C110.489 88.4362 110.112 88.0591 109.647 88.0591Z" fill="#24265A"/>
<path d="M113.016 84.69C112.551 84.69 112.174 85.0671 112.174 85.5322C112.174 85.9974 112.551 86.3745 113.016 86.3745C113.481 86.3745 113.858 85.9974 113.858 85.5322C113.858 85.0671 113.481 84.69 113.016 84.69Z" fill="#24265A"/>
<path d="M98.6019 87.592L94.5945 89.2342" stroke="#24265A"/>
<path d="M95.9304 88.687C94.5887 86.9403 90.4365 83.8956 85.0988 87.0015" stroke="#24265A"/>
</svg>
