<svg width="155" height="140" viewBox="0 0 155 140" fill="none" xmlns="http://www.w3.org/2000/svg">
<g clip-path="url(#clip0_972_910)">
<ellipse cx="87.5" cy="127.257" rx="46.5" ry="7" fill="#FEDA00" fill-opacity="0.3"/>
<path d="M36.1085 108.45L51.3475 68.1108L25.0206 51.4636L56.5722 46.282L56.268 17.559L79.6785 43.0583L103.595 9.78667L108.314 46.7287L138.075 32.3644L118.797 59.5838L150.225 78.2478L115.622 79.5156L114.931 125.725L92.7821 94.9566L72.3559 120.309L69.3942 89.3588L36.1085 108.45Z" fill="#FEDA00"/>
<path d="M69.0465 58.4802C66.5469 62.8861 70.1436 67.3671 73.0339 68.3703C75.8256 69.3394 81.0113 69.505 83.0626 63.6791C85.6267 56.3967 81.3278 54.6666 78.5383 54.0283C76.4061 53.5405 72.171 52.9729 69.0465 58.4802Z" fill="white" stroke="#5A2424" stroke-width="1.49259" stroke-linecap="round"/>
<path d="M74.2777 53.6142L72.5673 49.6113" stroke="#5A2424" stroke-width="1.49259" stroke-linecap="square"/>
<path d="M91.2782 63.5898C88.7786 67.9957 92.3753 72.4767 95.2656 73.48C98.0573 74.449 103.243 74.6147 105.294 68.7887C107.858 61.5063 103.56 59.7763 100.77 59.138C98.6378 58.6501 94.4027 58.0825 91.2782 63.5898Z" fill="white" stroke="#5A2424" stroke-width="1.49259" stroke-linecap="round"/>
<path d="M91.2788 63.4368C89.8958 65.8746 91.8859 68.3539 93.4851 68.909C95.0297 69.4451 97.8989 69.5368 99.0339 66.3133C100.453 62.284 98.074 61.3268 96.5306 60.9736C95.3509 60.7037 93.0076 60.3896 91.2788 63.4368Z" fill="#5A2424" stroke="#5A2424" stroke-width="1.49259" stroke-linecap="round"/>
<path d="M69.8161 58.2996C68.4331 60.7373 70.4231 63.2167 72.0223 63.7718C73.5669 64.3079 76.4361 64.3996 77.5711 61.1761C78.9898 57.1468 76.6113 56.1896 75.0678 55.8364C73.8881 55.5665 71.5449 55.2524 69.8161 58.2996Z" fill="#5A2424" stroke="#5A2424" stroke-width="1.49259" stroke-linecap="round"/>
<path d="M96.5425 58.5864L94.8321 54.5835" stroke="#5A2424" stroke-width="1.49259" stroke-linecap="square"/>
<rect x="118.55" y="6.25708" width="9.10022" height="9.10022" transform="rotate(30 118.55 6.25708)" fill="#FF6609"/>
<circle cx="151" cy="40.2571" r="3" fill="#5146F1"/>
<path d="M144.527 9.25708L149.527 26.2571" stroke="#FEDA00"/>
<path d="M154.408 13.021L139.118 21.6499" stroke="#FEDA00"/>
<path d="M155.035 20.2739L138.491 14.3967" stroke="#FEDA00"/>
<path d="M20.5268 82.2571L25.5268 99.2571" stroke="#FEDA00"/>
<path d="M30.4081 86.021L15.1185 94.6499" stroke="#FEDA00"/>
<path d="M31.0351 93.2739L14.4915 87.3967" stroke="#FEDA00"/>
<circle cx="5" cy="105.257" r="3" fill="#5146F1"/>
<rect x="24.5503" y="109.257" width="9.10022" height="9.10022" transform="rotate(30 24.5503 109.257)" fill="#FF6609"/>
<path d="M89.9955 76.2373L80.8497 73.4795C79.6111 77.3156 80.2934 79.3913 83.0734 80.5191C87.7982 82.4359 89.4891 78.0072 89.9955 76.2373Z" fill="#FEDA00" stroke="#5A2424"/>
<path d="M85.6406 71.2686C84.5469 70.9756 84.0286 70.0353 84.2242 69.3057C84.4197 68.576 85.3386 68.0209 86.4323 68.3139C87.5259 68.607 88.0442 69.5472 87.8487 70.2769C87.6532 71.0065 86.7342 71.5617 85.6406 71.2686Z" fill="#5146F1" stroke="#5A2424" stroke-width="1.35266"/>
</g>
<defs>
<clipPath id="clip0_972_910">
<rect width="155" height="140" fill="white"/>
</clipPath>
</defs>
</svg>
