<svg width="155" height="140" viewBox="0 0 155 140" fill="none" xmlns="http://www.w3.org/2000/svg">
<path d="M75.5 125.845C101.181 125.845 122 122.711 122 118.845C122 114.979 101.181 111.845 75.5 111.845C49.8188 111.845 29 114.979 29 118.845C29 122.711 49.8188 125.845 75.5 125.845Z" fill="#FEDA00" fill-opacity="0.3"/>
<path fill-rule="evenodd" clip-rule="evenodd" d="M94.9582 112.478C103.2 106.848 110.966 93.4393 115.016 78.9754C120.946 57.7913 116.274 36.9974 104.578 32.5311C94.2014 28.5682 81.7825 38.7913 74.9719 55.9445C58.2285 44.0607 40.0554 42.6781 32.6098 53.4527C24.4035 65.3281 32.3366 87.475 50.3288 102.919C66.5384 116.833 85.3825 120.56 94.9582 112.478Z" fill="#FEDA00"/>
<path d="M122.431 19.5501L114.55 15L110 22.881L117.881 27.4311L122.431 19.5501Z" fill="#FF6609"/>
<path d="M147 52C148.657 52 150 50.6569 150 49C150 47.3431 148.657 46 147 46C145.343 46 144 47.3431 144 49C144 50.6569 145.343 52 147 52Z" fill="#5146F1"/>
<path fill-rule="evenodd" clip-rule="evenodd" d="M145.048 35.1411L142.582 26.7551L135.364 30.8282L134.873 29.9573L141.563 26.182L134.325 23.6108L134.66 22.6685L142.164 25.3343L140.048 18.1411L141.007 17.8589L143.186 25.2658L150.163 21.3284L150.654 22.1993L143.965 25.9743L151.203 28.5457L150.868 29.488L143.676 26.9329L146.007 34.8589L145.048 35.1411Z" fill="#FEDA00"/>
<path fill-rule="evenodd" clip-rule="evenodd" d="M25.0471 85.1411L22.5807 76.7555L15.3643 80.8282L14.8728 79.9573L21.5622 76.1821L14.3242 73.6108L14.659 72.6685L22.1627 75.3342L20.0471 68.1411L21.0064 67.8589L23.1851 75.2662L30.1624 71.3284L30.6539 72.1993L23.9648 75.9744L31.2025 78.5457L30.8677 79.488L23.6752 76.9328L26.0064 84.8589L25.0471 85.1411Z" fill="#FEDA00"/>
<path d="M5 94C6.65685 94 8 92.6569 8 91C8 89.3431 6.65685 88 5 88C3.34315 88 2 89.3431 2 91C2 92.6569 3.34315 94 5 94Z" fill="#5146F1"/>
<path d="M32.4318 99.5501L24.5508 95L20.0007 102.881L27.8817 107.431L32.4318 99.5501Z" fill="#FF6609"/>
<path d="M81.1725 82.1216C81.2804 83.0201 80.4247 84.1044 78.8962 84.2881C77.3676 84.4717 76.2794 83.6209 76.1715 82.7223C76.0636 81.8238 76.9193 80.7395 78.4479 80.5559C79.9764 80.3722 81.0646 81.2231 81.1725 82.1216Z" fill="#FFEAA1" stroke="#5A2424" stroke-width="1.35266"/>
<path d="M60.3099 76.1776C58.6099 71.6832 61.5277 66.7746 66.2882 66.1205C70.4562 65.5478 74.2765 68.5238 74.741 72.7052L75.215 76.9715C75.6717 81.0819 72.4542 84.6766 68.3186 84.6766C65.4334 84.6766 62.8492 82.8912 61.8285 80.1926L60.3099 76.1776Z" fill="white" stroke="#5A2424" stroke-width="1.35"/>
<path d="M96.079 74.2071C97.4038 69.5881 94.0922 64.936 89.2941 64.6755C85.0932 64.4474 81.5305 67.7274 81.4113 71.9328L81.2896 76.2237C81.1724 80.3576 84.6745 83.6757 88.7961 83.3357C91.6716 83.0985 94.1002 81.1067 94.8956 78.3333L96.079 74.2071Z" fill="white" stroke="#5A2424" stroke-width="1.35"/>
<rect x="63.3837" y="69.8059" width="10.5843" height="12.7011" rx="5.29213" transform="rotate(-6.33961 63.3837 69.8059)" fill="#5A2424"/>
<rect x="86.3647" y="66.8447" width="10.5843" height="12.7011" rx="5.29213" transform="rotate(8.17742 86.3647 66.8447)" fill="#5A2424"/>
<path d="M67.77 92.4216C69.2675 93.8772 72.2866 95.3535 75.5861 93.7233C76.868 93.0899 77.2187 92.6088 78.0228 91.1667C78.5768 90.1733 79.8335 89.8678 80.8534 90.3713C83.6285 91.7413 87.5039 92.651 90.7292 88.8353" stroke="#5A2424" stroke-linecap="round"/>
<path d="M71.2587 66.2865C72.2959 65.5854 73.595 63.7147 73.3144 61.6302" stroke="#5A2424" stroke-width="1.5" stroke-linecap="square"/>
<path d="M72.5704 67.336C73.5259 67.1325 75.5057 66.3816 75.7803 65.0066" stroke="#5A2424" stroke-width="1.5" stroke-linecap="square"/>
<path d="M93.0997 65.5011C94.1369 64.8 95.436 62.9293 95.1554 60.8448" stroke="#5A2424" stroke-width="1.5" stroke-linecap="square"/>
<path d="M94.4113 66.5506C95.3669 66.3471 97.3467 65.5962 97.6213 64.2212" stroke="#5A2424" stroke-width="1.5" stroke-linecap="square"/>
</svg>
